<?xml version="1.0" encoding="UTF-8"?>
<svg id="_레이어_1" data-name="레이어_1" xmlns="http://www.w3.org/2000/svg" version="1.1" viewBox="0 0 2360 1733">
  <!-- Generator: Adobe Illustrator 29.8.2, SVG Export Plug-In . SVG Version: 2.1.1 Build 3)  -->
  <defs>
    <style>
      .st0 {
        fill: #5d89b6;
      }

      .st1 {
        fill: #adcde4;
      }
    </style>
  </defs>
  <path class="st0" d="M801.67,435.63c-23.78-58.21-54.74-110.58-122.65-120.43-105.82-15.35-160.76,54.81-204.47,138.98-61.22,117.91-89.29,256.93-103.64,388.48-13.07,119.8-8.73,238.45-5.06,358.54l-4,49.58c-31.37,10.71-66.84,9.72-97.65,22.12-44.43,17.88-6.2,34.45,18.88,39.86,57.13,12.34,139.39,8.27,196.32-5,16.23-3.78,44.65-12.48,46.6-32.18,1.13-11.35-16.69-31.67-22.22-42.03-20.21-37.87-19.52-88.92-21.41-131-1.05-23.39-2.6-47.29-3.02-70.7-.56-30.81.36-61.71.2-92.52,33.11-23.53,66.01-47.43,98.37-71.99,51.95-39.43,101.77-81.98,157-116.97,1.46-.93,11.8-7.71,12.47-6.95,1.59,102.48-2.22,204.58-15.07,306.19-3.18,25.19-7.03,50.58-11,75.67-7.6,48.06-20.92,98.22-26.61,145.73-5.11,42.66.53,73.01,48.49,80.77,49.12,7.95,88.19-8.07,100.35-58.47,9.02-37.41,11.64-86.15,14.42-125.04,7.66-107.12,4.74-214.5,1.96-321.71-3.48-134.42-7-285.4-58.27-410.93ZM678.77,687.24c-20.06,14.18-38.42,30.81-58,45.61-46.38,35.07-94.86,67.48-138.37,106.19,6.21-95.77,26.4-190.37,58.75-280.44,17.39-48.4,39.32-99.7,67.35-142.85,11.32-17.42,24.4-35.89,40.78-48.65,19.31,18.29,32.41,44.18,42.8,68.52,28.04,65.72,42.15,140.57,49.19,211.49-20.3,14.14-42.31,25.84-62.5,40.12Z"/>
  <path class="st1" d="M1996.8,730.98c42.57-38.77,65.14-83.3,72.58-140.61,9.71-74.81-70.66-106.98-131.89-113.91-124.12-14.07-245.37,24.97-295.15,147.17-10.71,26.29-19.97,52.71-21.21,81.4-3.19,73.49,45.64,170.71,90.31,227.56,64.86,82.55,166.16,147.94,148.71,268.44-2.99,20.63-11.17,47.64-25.26,63.4-6.61,7.39-6.71,6.89-14.47.5-32.68-26.94-52.17-98.01-37.62-137.26,4.83-13.03,17.8-19.51,6.16-34.5-23.27-30-114.74-29.18-143.38-7.06-42.45,32.78-24.99,124.51-3.01,165.39,41.36,76.92,155.97,106.69,236.85,91.33,84.21-15.99,135.88-64.64,141.26-152.63,8.86-144.66-117.91-207.76-183.73-314.37-17.05-27.62-31.98-58.84-42.42-89.57,69.96,6.6,149.02-6.79,202.26-55.28ZM1781.63,737.38c-3.38-22.43-4.31-45.44-1.92-68.06,4.83-45.66,20.61-97.35,61.73-122.57,21.56-13.23,40.08-19.69,59.21,1.41,19.27,21.25,15.51,61.87,6.21,86.92-13.55,36.54-57.05,89.04-94.86,101.4-10.91,3.57-19.33.77-30.38.9Z"/>
  <path class="st1" d="M1587.47,1094.4c-7.66-48.57-12.37-97.46-19.24-146.13-4.66-33.03-11.52-65.8-15.67-98.89-3.66-29.22-4.55-59.37-9.26-88.37-7.47-46.05-18.52-67.61-70.06-63.41-7.75.63-27.36,5.51-29.96,13.88-5.38,60.32-9.22,120.77-18.54,180.69-5.87,37.72-14.39,73.87-25.75,110.24-1.56-.18-1.53-1.48-1.89-2.58-1.81-5.61-3.17-13.34-4.59-19.32-8.06-33.93-15.14-68.25-22.1-102.43-10.34-50.87-17.17-106.06-29.49-155.8-3.13-12.63-9.59-35.97-19.17-44.59-17.82-16.03-70.59-16.25-89.16-1.55-7.15,5.66-7.48,14.19-7.99,22.89-4.53,77.16-9.17,154.43-21.17,230.86-9.89,62.99-21.41,122.94-40.29,183.85-8.94,28.83-19.09,64.35-30.98,91.56-8.02,18.37-27.15,39.89-.85,53.29,25.44,12.96,80.67,10.62,98.74-14.19,10.22-14.04,10.85-47.17,13.69-65.01,5.74-36.05,12.97-71.74,21.24-107.27l13.97-54.77c6.22,22.54,12.37,45.27,20.4,67.25,7.06,19.33,22.1,56.97,38.55,69.04,22.05,16.18,74.38,16.46,96.3,0,11.84-8.89,15.6-39,20.46-53.26.45-1.3.29-3.04,2.12-3.35,2.42,37.88,10.85,76.61,27.03,110.95,8.15,17.31,12.42,26.19,31.24,33.51,21.87,8.51,66.97,9.34,85.1-7.6,11.12-10.39,6.63-23.03,4.95-36.61-4.24-34.22-12.23-68.73-17.63-102.91Z"/>
  <path class="st0" d="M1006.94,858.98c-25.99-1.55-91.13,9.14-110.11,27.36-26.43,25.37,25.24,44.75,44.86,44.36-5,18.83-12.13,37.03-17.43,55.78-17.45,61.73-24.33,124.58-18.43,188.77,2.54,27.69,7.41,48.61,32.35,64.28,27.29,17.14,81.32,25.14,109.81,8.14,26.17-15.61,15.63-49.81,14.26-74.42-2.91-52.57,3.36-105.41,17.21-156.1,7.45-27.26,27.65-71.99,28.65-97.87,1.65-42.67-68.52-58.34-101.17-60.3Z"/>
  <path class="st0" d="M950.45,790.94c55.48,9.75,81.78-9.62,112.61-52.19,13.02-17.98,43.26-64.84,40.92-86.38-2.28-20.98-35.06-26.76-51.9-26.21-26.87.87-49.81,16.43-70.01,32.6-18.57,14.87-79.41,69.49-83.77,90.57-5.33,25.75,32.72,38.19,52.16,41.61Z"/>
</svg>